<?xml version="1.0" encoding="utf-8"?>
<!-- Generator: Adobe Illustrator 19.2.1, SVG Export Plug-In . SVG Version: 6.00 Build 0)  -->
<svg version="1.1" id="One_line_x2C__cmyk_x2C__positive"
	 xmlns="http://www.w3.org/2000/svg" xmlns:xlink="http://www.w3.org/1999/xlink" x="0px" y="0px" viewBox="0 0 96.0945 34.1008"
	 style="enable-background:new 0 0 96.0945 34.1008;" xml:space="preserve">
<style type="text/css">
	.st0{fill:#0051A5;}
	.st1{fill:#FEDF01;}
	.st2{fill:#FFFFFF;}
</style>
<g id="Layer_2_4_">
	<g>
		<g>
			<g>
				<g>
					<g>
						<g>
							<path class="st0" d="M25.7608,29.7092c0,1.1075-0.4541,1.7496-1.3403,2.0904c-3.4433,1.3281-7.5215,2.0127-11.4009,2.0127
								c-3.8789,0-7.957-0.6846-11.4013-2.0127c-0.8858-0.3408-1.3399-0.9829-1.3399-2.0904V0.3152h25.4824V29.7092z"/>
							<g>
								<g>
									<path class="st1" d="M7.1124,18.2278c-3.5273-2.2021-4.6933-3.1777-4.792-4.6221
										c-0.0166-0.2939,0.0498-0.7885,0.1729-1.1421l-0.3325-0.2207c-0.2666,0.4234-0.4351,0.9815-0.4351,1.4942
										c-0.0005,0.8345,0.2671,1.4663,0.5947,1.9712c0.4961,0.7636,1.0176,1.2426,2.3013,2.2055
										c1.3848,1.0391,2.3286,2.2515,2.8725,3.5201H7.691v-1.44c1.8706,1.0615,3.52,2.0611,4.3306,3.8457h0.1968
										C11.9005,21.9895,10.8546,20.5637,7.1124,18.2278z"/>
									<path class="st1" d="M23.3634,23.8426h-0.2388c0-1.3169-1.207-1.6758-2.4717-1.6758h-3.9506
										c0.1269,0.6489,0.1865,1.4087,0.0874,2.1264h-0.1963c-0.3662-2.9585-2.0381-4.4243-4.375-5.9926v1.3461h-0.1968
										c-0.6206-1.3891-1.9863-2.6933-3.2788-3.6181h0.0005c-0.3443-0.2456-0.6997-0.5-1.0523-0.751v1.4522H7.4942
										c-0.5478-1.4405-1.5429-2.5152-2.9614-3.7945c-1.5317-1.3794-2.1504-2.2046-2.5083-3.1538
										C1.8067,9.2068,1.7457,8.742,1.7374,8.1106C1.7233,6.9817,2.2941,5.9622,3.0055,5.5803v0.5469
										C2.6525,6.595,2.4698,7.1858,2.4689,7.7864c-0.001,0.5537,0.1308,1.1704,0.4077,1.6963
										c0.8623,1.6426,3.768,3.6587,5.6137,4.896c5.7383,3.8486,6.8838,4.5205,7.837,6.563
										c0.1059,0.2275,0.2119,0.5337,0.3002,0.8882c0.8292-0.128,3.836-0.5855,4.3907-0.6734
										c0.1059-0.0166,0.3281-0.0449,0.4428-0.0517c0.5176-0.3277,0.9224-0.7447,1.2779-1.2652l-2.1997-0.1709
										c-0.1133,0.2525-0.2261,0.4644-0.3252,0.6343h-0.1787c0.06-0.2236,0.1123-0.4438,0.1567-0.6611l-0.5615-0.0415v-0.1197
										l0.6089-0.0752c0.1157-0.6225,0.1714-1.2109,0.1831-1.7612l-2.7705-0.1567c-0.0152,0.2841-0.0176,0.5517-0.0083,0.7998
										h-0.1773c-0.0591-0.2764-0.1055-0.5508-0.1411-0.8189l-0.6069-0.0346v-0.1851l0.5766-0.0312
										c-0.0805-0.733-0.0859-1.4175-0.0561-2.0049l-1.6197-0.0747c0.0762,0.1425,0.1553,0.2871,0.211,0.4438
										c0.3496,0.9775,0.2666,2.1235,0.1509,2.6499h-0.1963c-0.0283-0.6099-0.2334-1.3569-0.4278-1.813
										c-0.4482-1.0561-1.4541-1.9892-3.1386-3.0722v1.3496h-0.1968c-0.5606-1.7735-1.9556-2.7598-4.0298-3.8252
										c-1.7114-0.8784-2.2436-1.9366-2.147-3.5752L6.423,7.638c0.1479,1.5327,1.3256,2.4165,2.5576,2.4072
										c0.7251-0.0049,1.4048-0.1011,2.062-0.2329c0.9482-0.1914,1.8257-0.355,2.5586-0.0952V8.8118h-0.5757
										c-0.2056,0.1777-0.623,0.3848-1.2373,0.394c-0.6753,0.0127-1.9531-0.3764-1.9531-1.8042
										c0-1.2397,1.0498-1.4375,1.9043-1.4375c0.4565,0,1.2168-0.0171,1.4741-0.0317c0.1914-0.0112,0.3345-0.0405,0.4272-0.1323
										c0.0972-0.0952,0.1265-0.1934,0.149-0.3199c0.0268-0.1538,0.0268-0.3115,0.0268-0.5771c0-0.0977,0-0.9053,0-0.9053H9.857
										v1.5679L8.359,4.9959v-0.375h0.7173V3.9978H6.4054V2.6956H5.4942c-0.4873,0-1.0478,0.3408-1.0869,1.0019
										C4.3692,4.3313,4.6544,4.865,5.3067,4.865h0.1172v0.7588H5.3067c-1.143,0-2.0048-0.8589-2.0048-1.9985
										c0-1.1875,1.0117-2.0918,2.2343-2.0918h1.9317v1.3022h7.5102c0,0,0,1.5567,0,1.9243c0,0.3242-0.0175,0.7598-0.0493,1.0352
										c-0.022,0.1997-0.0932,0.5605-0.4726,0.8501c-0.2286,0.1743-0.5738,0.2446-1.1343,0.2471
										c-0.1826,0.0009-0.7153-0.0083-1.3535-0.0474c-0.8555-0.0537-1.0982,0.2759-1.1328,0.5825
										c-0.0079,0.065-0.0069,0.1279,0,0.1885c0.4008-0.3106,0.9677-0.5293,1.6118-0.3272
										c1.1333,0.3565,1.4565,0.3882,2.0464-0.0756l0.06,0.1328c-0.0635,0.0986-0.1772,0.2397-0.3428,0.3652h0.5474v2.9653
										l1.7041-1.021h4.7827c0,0,2.022,1.0562,2.3545,1.2305c0.2935,0.1543,0.4092,0.3408,0.4551,0.6148
										c0.0381,0.229-0.021,0.519-0.1338,0.7045c-0.0703,0.1158-0.6196,1.0162-0.9102,1.4971
										c0.813,0.8799,1.3619,2.1109,1.3619,3.4819c0,1.2422-0.4595,2.8448-1.9522,4.0357
										c0.6563,0.2148,1.0772,0.5723,1.4068,1.0434L23.3634,23.8426z M12.6988,7.8718c-0.6718-0.1474-1.0463-0.0644-1.4326,0.3038
										c0.189,0.0903,0.4258,0.1396,0.6875,0.1206C12.3307,8.2698,12.5655,8.0437,12.6988,7.8718z M12.3107,12.1443l1.8925-1.1343
										c-0.3711-0.185-0.7822-0.3022-1.27-0.3086c-0.6518-0.0102-1.7529,0.2901-2.2856,0.3716
										C10.8854,11.2356,11.7311,11.7761,12.3107,12.1443z M20.7623,12.2644l0.2622-0.3677l-0.4062-0.5424l0.0678-0.1197
										l1.1426,0.6163l-0.249,0.7553c0.1836,0.0879,0.3535,0.2002,0.5796,0.3501l0.7378-1.2134l-1.9112-0.999h-4.2241
										l-3.4277,2.0625c0.644,0.4473,1.2363,0.9307,1.6572,1.4175c0.9185-1.3364,2.5327-2.1895,4.1304-2.1895
										C19.6442,12.0344,20.253,12.0901,20.7623,12.2644z M20.4181,17.053c-0.0215-0.6309-0.1011-1.2017-0.2066-1.7051
										l-2.2378-0.1015c-0.1543,0.6811-0.2548,1.3462-0.3027,1.9521L20.4181,17.053z M21.172,15.3924
										c0.0718,0.5776,0.0791,1.1191,0.0425,1.6191l2.2172-0.1177c-0.0566-0.5034-0.1997-0.9804-0.4145-1.4165L21.172,15.3924z
										 M20.0411,14.6663c-0.2309-0.8003-0.5073-1.357-0.6528-1.6192c-0.0928-0.0053-0.1865-0.0078-0.2808-0.0078
										c-0.1557,0-0.3125,0.02-0.4638,0.0366c-0.2246,0.5596-0.4068,1.1255-0.5557,1.6988L20.0411,14.6663z M20.6568,13.323
										c0.1651,0.4434,0.2896,0.874,0.3809,1.2881l1.3555-0.0747C21.9275,14.0008,21.3321,13.5799,20.6568,13.323z
										 M23.1505,19.0408c0.1587-0.3848,0.2607-0.7554,0.2886-1.2241l-2.3042-0.1309c-0.104,0.645-0.2759,1.2066-0.459,1.6665
										L23.1505,19.0408z M17.4669,13.4119c-0.772,0.3462-1.3037,0.8154-1.7783,1.4897l1.5771-0.0825
										C17.3224,14.1189,17.4142,13.6541,17.4669,13.4119z"/>
								</g>
								<g>
									<path class="st2" d="M14.5401,27.2464c0.6426-0.1045,1.2574-0.6045,1.2574-1.3604c0-0.6816-0.2896-1.4302-2.2959-1.4302
										c-1.5005,0-3.3848,0-3.3848,0v0.0547c0.1025,0.0313,0.2642,0.1143,0.3701,0.2193c0.23,0.2246,0.3057,0.5605,0.3169,1.0058
										v5.0674c0,0,1.8545,0,2.8052,0c1.543,0,2.6597-0.5884,2.6597-1.9365C16.2687,27.7703,15.4156,27.3035,14.5401,27.2464z
										 M13.0968,25.0608c0.7178,0,1.2046,0.1553,1.2046,0.9219c0,0.8169-0.6524,1.042-1.3965,1.042c-0.3608,0-0.6411,0-0.6411,0
										v-1.9639C12.2638,25.0608,12.6651,25.0608,13.0968,25.0608z M13.1691,30.2029c-0.3038,0-0.9053,0-0.9053,0v-2.5913
										c0,0,0.4922,0,0.8637,0c1.1866,0,1.6421,0.3535,1.6421,1.2432C14.7696,29.8172,14.1754,30.2029,13.1691,30.2029z"/>
									<path class="st2" d="M7.6188,30.803h1.8276l-2.335-2.9849c0.9361-0.2505,1.6372-0.7622,1.6372-1.6923
										c0-1.0923-0.6533-1.67-2.3628-1.67c-1.5156,0-3.5307,0-3.5307,0v0.0547c0.1299,0.0464,0.2754,0.1304,0.3706,0.2241
										c0.2471,0.2437,0.3208,0.6158,0.3208,1.1187c0,0.0015,0,4.9497,0,4.9497h1.4663v-2.8135c0,0,0.3184,0,0.5352,0
										L7.6188,30.803z M5.0128,25.0608c0,0,0.5571,0,0.9878,0c0.8223,0,1.2515,0.2402,1.2515,1.1143
										c0,0.7793-0.5616,1.2407-1.462,1.2407c-0.3608,0-0.7773,0-0.7773,0V25.0608z"/>
									<path class="st2" d="M22.1974,25.3255c0.3921,0.2226,0.5112,0.5131,0.5136,0.5156
										c0.0191,0.0215,0.0611,0.0146,0.0611,0.0146l0.3193-1.0854c0,0-0.5732-0.4116-1.9365-0.4116
										c-2.0635,0-3.6084,1.0395-3.6084,3.3139c0,2.563,1.8403,3.2285,3.4624,3.2285c1.5093,0,2.102-0.4799,2.102-0.4799v-0.7447
										c0,0-0.5332,0.4981-1.6762,0.4981c-0.9448,0-2.3301-0.4312-2.3599-2.5386c-0.0278-1.9448,0.8203-2.5796,1.957-2.5796
										C21.6651,25.0564,21.982,25.2044,22.1974,25.3255z"/>
								</g>
							</g>
						</g>
					</g>
				</g>
			</g>
		</g>
	</g>
</g>
<g>
	<rect x="38.503" y="0.2884" class="st0" width="0.7979" height="33.4711"/>
</g>
<g>
	<path class="st0" d="M45.67,11.0891V2.7537h1.751v8.3354H45.67z"/>
	<path class="st0" d="M52.4874,11.0891V7.0955c0-0.6958-0.1201-0.8999-0.5391-0.8999c-0.3242,0-0.7441,0.2163-1.1162,0.5517v4.3418
		h-1.6064V6.6394c0-0.5273-0.0723-1.0312-0.2158-1.4389l1.4267-0.4078c0.1436,0.2515,0.2276,0.5157,0.2276,0.7676
		c0.2402-0.1679,0.4443-0.312,0.708-0.456c0.3242-0.168,0.7431-0.2637,1.1035-0.2637c0.6836,0,1.2832,0.3599,1.4756,0.8877
		c0.083,0.2275,0.1191,0.4917,0.1191,0.8755v4.4853H52.4874z"/>
	<path class="st0" d="M57.7521,11.281c-0.7549,0-1.583-0.2397-2.4825-0.7075l0.5762-1.1753
		c0.4912,0.2998,1.3428,0.6953,2.0381,0.6953c0.4561,0,0.8154-0.2998,0.8154-0.6953c0-0.4199-0.2998-0.6357-0.9472-0.7558
		l-0.7198-0.1319c-0.4072-0.0718-0.9111-0.3598-1.1269-0.6235c-0.2158-0.2642-0.3477-0.7075-0.3477-1.1035
		c0-1.1993,0.9473-2.003,2.374-2.003c0.9844,0,1.6319,0.2998,2.1954,0.5757l-0.5274,1.0796
		c-0.6123-0.312-1.0556-0.4438-1.5117-0.4438c-0.4678,0-0.7793,0.2397-0.7793,0.5996c0,0.312,0.2041,0.48,0.7676,0.6235
		l0.7431,0.1919c0.7559,0.1919,1.0079,0.4199,1.2237,0.6958c0.2275,0.2876,0.3359,0.6357,0.3359,1.0435
		C60.379,10.4173,59.3233,11.281,57.7521,11.281z"/>
	<path class="st0" d="M65.6676,11.2571c-0.2051-0.144-0.3731-0.3477-0.4805-0.5996c-0.3945,0.3838-0.9707,0.5874-1.6191,0.5874
		c-0.8633,0-1.6074-0.4077-1.8111-0.9951c-0.0957-0.2759-0.1318-0.6001-0.1318-1.2237V5.0926l1.5835-0.2999v3.9458
		c0,0.5518,0.0488,0.8394,0.1309,1.0074c0.0839,0.1679,0.3242,0.2876,0.5644,0.2876c0.3965,0,0.875-0.2876,0.9961-0.5874V5.1282
		l1.5352-0.3237v4.6894c0,0.4077,0.1308,0.8277,0.3711,1.1157L65.6676,11.2571z"/>
	<path class="st0" d="M71.2613,6.3518c-0.1543-0.084-0.2871-0.1201-0.4668-0.1201c-0.3593,0-0.6836,0.168-0.9843,0.5156v4.3418
		h-1.6055V6.9876c0-0.8277-0.0977-1.4512-0.2285-1.7993l1.4394-0.3838c0.1426,0.2519,0.2266,0.5278,0.252,0.8755
		c0.3476-0.4678,0.8398-0.8755,1.4394-0.8755c0.2383,0,0.3477,0.0239,0.5997,0.1318L71.2613,6.3518z"/>
	<path class="st0" d="M76.8473,11.4011c-0.3711-0.1562-0.7071-0.4321-0.8633-0.7436c-0.1211,0.1196-0.252,0.2397-0.3731,0.3237
		c-0.2988,0.2158-0.7304,0.336-1.2343,0.336c-1.3672,0-2.1114-0.6958-2.1114-1.919c0-1.4394,0.9961-2.1108,2.9512-2.1108
		c0.1192,0,0.2266,0,0.3594,0.0117v-0.252c0-0.6836-0.1328-0.9111-0.7188-0.9111c-0.5175,0-1.1171,0.252-1.7753,0.6953L72.3981,5.68
		c0.3242-0.2037,0.5625-0.3238,0.9941-0.5035c0.5996-0.2519,1.1152-0.3598,1.6797-0.3598c1.0312,0,1.7383,0.3838,1.9785,1.0674
		c0.084,0.2519,0.1211,0.4438,0.1094,1.1035l-0.0371,2.0625c-0.0118,0.6718,0.0371,0.9594,0.5761,1.3672L76.8473,11.4011z
		 M75.4801,8.4026c-1.1152,0-1.5,0.2041-1.5,0.9356c0,0.4794,0.3008,0.8037,0.709,0.8037c0.2988,0,0.5996-0.1563,0.8379-0.42
		l0.0254-1.3193H75.4801z"/>
	<path class="st0" d="M82.15,11.0891V7.0955c0-0.6958-0.1191-0.8999-0.5391-0.8999c-0.3242,0-0.7441,0.2163-1.1152,0.5517v4.3418
		h-1.6074V6.6394c0-0.5273-0.0723-1.0312-0.2149-1.4389l1.4258-0.4078c0.1446,0.2515,0.2285,0.5157,0.2285,0.7676
		c0.2403-0.1679,0.4434-0.312,0.7071-0.456c0.3242-0.168,0.7441-0.2637,1.1035-0.2637c0.6836,0,1.2832,0.3599,1.4746,0.8877
		c0.084,0.2275,0.1211,0.4917,0.1211,0.8755v4.4853H82.15z"/>
	<path class="st0" d="M89.3063,10.8494c-0.4317,0.2519-0.9102,0.3838-1.4981,0.3838c-1.6914,0-2.6758-1.1753-2.6758-3.1665
		c0-1.4151,0.541-2.3506,1.2598-2.8423c0.4082-0.2759,1.0078-0.4556,1.5234-0.4556c0.4082,0,0.8516,0.0957,1.1875,0.2754
		c0.2286,0.1201,0.336,0.2041,0.5996,0.4321l-0.7793,1.0552c-0.3242-0.2998-0.6718-0.4795-0.9726-0.4795
		c-0.7188,0-1.043,0.6236-1.043,2.0625c0,0.8037,0.1074,1.2837,0.3125,1.5474c0.168,0.2158,0.4434,0.3476,0.7188,0.3476
		c0.373,0,0.709-0.1557,1.1035-0.5034l0.0957-0.084l0.7324,0.9712C89.6305,10.6336,89.5231,10.7176,89.3063,10.8494z"/>
	<path class="st0" d="M92.2672,8.5227v0.0479c0,0.9472,0.4668,1.4873,1.2949,1.4873c0.5508,0,1.0664-0.2041,1.5586-0.6118
		l0.625,0.9594c-0.709,0.5757-1.4512,0.8516-2.3164,0.8516c-1.7617,0-2.9023-1.2476-2.9023-3.1782
		c0-1.1035,0.2285-1.835,0.7675-2.4346c0.5039-0.564,1.1153-0.8276,1.9317-0.8276c0.707,0,1.3789,0.2397,1.7754,0.6474
		c0.5625,0.5757,0.8144,1.4034,0.8144,2.6866v0.372H92.2672z M94.15,7.2752c0-0.4556-0.0488-0.6958-0.1914-0.9234
		c-0.1562-0.2397-0.3848-0.3598-0.709-0.3598c-0.6113,0-0.959,0.4795-0.959,1.331v0.0239H94.15V7.2752z"/>
</g>
</svg>
